<?xml version="1.0" encoding="utf-8"?>
<!-- Generator: Adobe Illustrator 24.2.1, SVG Export Plug-In . SVG Version: 6.00 Build 0)  -->
<svg version="1.1" id="Layer_1" xmlns="http://www.w3.org/2000/svg" xmlns:xlink="http://www.w3.org/1999/xlink" x="0px" y="0px"
	 viewBox="0 0 43 41.5" style="enable-background:new 0 0 43 41.5;" xml:space="preserve">
<style type="text/css">
	.st0{fill:#FFFFFF;stroke:#000000;stroke-width:0.5;stroke-miterlimit:10;}
</style>
<path class="st0" d="M2.01,0.25h39.01c0.96,0,1.74,1.12,1.74,2.49v4.01c0,1.38-0.78,2.49-1.74,2.49H1.99c-0.96,0-1.74-1.12-1.74-2.5
	V2.77C0.25,1.38,1.04,0.25,2.01,0.25z"/>
<path class="st0" d="M2.01,16.25h39.01c0.96,0,1.74,1.12,1.74,2.49v4.01c0,1.38-0.78,2.49-1.74,2.49H1.99
	c-0.96,0-1.74-1.12-1.74-2.5v-3.98C0.25,17.38,1.04,16.25,2.01,16.25z"/>
<path class="st0" d="M2.01,32.25h39.01c0.96,0,1.74,1.12,1.74,2.49v4.01c0,1.38-0.78,2.49-1.74,2.49H1.99
	c-0.96,0-1.74-1.12-1.74-2.5v-3.98C0.25,33.38,1.04,32.25,2.01,32.25z"/>
</svg>
