<?xml version="1.0" encoding="utf-8"?>
<!-- Generator: Adobe Illustrator 24.2.1, SVG Export Plug-In . SVG Version: 6.00 Build 0)  -->
<svg version="1.1" id="Layer_1" xmlns="http://www.w3.org/2000/svg" xmlns:xlink="http://www.w3.org/1999/xlink" x="0px" y="0px"
	 viewBox="0 0 61.18 43.99" style="enable-background:new 0 0 61.18 43.99;" xml:space="preserve">
<style type="text/css">
	.st0{fill:#FFFFFF;stroke:#000000;stroke-width:0.5;stroke-miterlimit:10;}
</style>
<path class="st0" d="M35.94,41.61V2.6c0-0.96,1.12-1.74,2.49-1.74h4.01c1.38,0,2.49,0.78,2.49,1.74v39.03c0,0.96-1.12,1.74-2.5,1.74
	h-3.98C37.07,43.37,35.94,42.58,35.94,41.61z"/>
<path class="st0" d="M51.94,41.61V2.6c0-0.96,1.12-1.74,2.49-1.74h4.01c1.38,0,2.49,0.78,2.49,1.74v39.03c0,0.96-1.12,1.74-2.5,1.74
	h-3.98C53.07,43.37,51.94,42.58,51.94,41.61z"/>
<polygon class="st0" points="0.25,0.5 0.25,43.5 29.25,22.5 "/>
</svg>
